<?xml version="1.0" encoding="UTF-8" standalone="no"?>
<svg
   xmlns:dc="http://purl.org/dc/elements/1.1/"
   xmlns:cc="http://creativecommons.org/ns#"
   xmlns:rdf="http://www.w3.org/1999/02/22-rdf-syntax-ns#"
   xmlns:svg="http://www.w3.org/2000/svg"
   xmlns="http://www.w3.org/2000/svg"
   width="50"
   height="24"
   viewBox="0 0 50 24"
   version="1.1"
   id="svg4">
  <metadata
     id="metadata10">
    <rdf:RDF>
      <cc:Work
         rdf:about="">
        <dc:format>image/svg+xml</dc:format>
        <dc:type
           rdf:resource="http://purl.org/dc/dcmitype/StillImage" />
        <dc:title></dc:title>
      </cc:Work>
    </rdf:RDF>
  </metadata>
  <defs
     id="defs8" />
  <path
     d="M 12,2 C 17.514,2 22,6.486 22,12 22,17.514 17.514,22 12,22 6.486,22 2,17.514 2,12 2,6.486 6.486,2 12,2 Z M 12,0 C 5.373,0 0,5.373 0,12 0,18.627 5.373,24 12,24 18.627,24 24,18.627 24,12 24,5.373 18.627,0 12,0 Z m 6,13 H 6 v -2 h 12 z"
     id="path2" />
  <path
     d="m 37.597136,2.076574 c 5.514,0 10,4.4859998 10,10 0,5.514 -4.486,10 -10,10 -5.514,0 -10,-4.486 -10,-10 0,-5.5140002 4.486,-10 10,-10 z m 0,-2.00000005 c -6.627,0 -12,5.37300005 -12,12.00000005 0,6.627 5.373,12 12,12 6.627,0 12,-5.373 12,-12 0,-6.627 -5.373,-12.00000005 -12,-12.00000005 z m 6,16.09400005 -4.157,-4.104 4.1,-4.1410002 -1.849,-1.849 -4.105,4.1590002 -4.156,-4.1020002 -1.833,1.834 4.161,4.1200002 -4.104,4.157 1.834,1.832 4.118,-4.159 4.143,4.102 z"
     id="path2-3" />
</svg>
