<?xml version="1.0" encoding="UTF-8" standalone="no"?>
<!-- Created with Inkscape (http://www.inkscape.org/) -->

<svg
   xmlns:dc="http://purl.org/dc/elements/1.1/"
   xmlns:cc="http://creativecommons.org/ns#"
   xmlns:rdf="http://www.w3.org/1999/02/22-rdf-syntax-ns#"
   xmlns:svg="http://www.w3.org/2000/svg"
   xmlns="http://www.w3.org/2000/svg"
   xmlns:sodipodi="http://sodipodi.sourceforge.net/DTD/sodipodi-0.dtd"
   xmlns:inkscape="http://www.inkscape.org/namespaces/inkscape"
   version="1.1"
   id="svg3818"
   width="16"
   height="16"
   viewBox="0 0 16 16"
   sodipodi:docname="LiquibaseIcon.svg"
   inkscape:export-filename="./LiquibaseGen.png"
   inkscape:export-xdpi="96"
   inkscape:export-ydpi="96"
   inkscape:version="0.92.5 (2060ec1f9f, 2020-04-08)">
  <metadata
     id="metadata3824">
    <rdf:RDF>
      <cc:Work
         rdf:about="">
        <dc:format>image/svg+xml</dc:format>
        <dc:type
           rdf:resource="http://purl.org/dc/dcmitype/StillImage" />
        <dc:title />
      </cc:Work>
    </rdf:RDF>
  </metadata>
  <defs
     id="defs3822" />
  <sodipodi:namedview
     pagecolor="#ffffff"
     bordercolor="#666666"
     borderopacity="1"
     objecttolerance="10"
     gridtolerance="10"
     guidetolerance="10"
     inkscape:pageopacity="0"
     inkscape:pageshadow="2"
     inkscape:window-width="1920"
     inkscape:window-height="1043"
     id="namedview3820"
     showgrid="false"
     inkscape:zoom="4.4249417"
     inkscape:cx="8.4108276"
     inkscape:cy="41.834338"
     inkscape:window-x="0"
     inkscape:window-y="0"
     inkscape:window-maximized="1"
     inkscape:current-layer="svg3818" />
  <path
     inkscape:connector-curvature="0"
     id="path4684"
     d="m 6.6901754,15.576716 c -0.3367802,-0.02684 -0.8485112,-0.09253 -1.13718,-0.146 -1.1372598,-0.210627 -1.4094284,-0.415285 -0.8631231,-0.649029 0.6808373,-0.291304 1.6053599,-0.566394 3.5696803,-1.062149 2.8308024,-0.714437 4.0347194,-1.134403 4.8527804,-1.692805 0.525685,-0.358831 0.517694,-0.36808 0.516708,0.598056 -9.68e-4,0.945474 -0.07087,1.240065 -0.36762,1.54909 -0.440207,0.458425 -1.309252,0.892339 -2.312728,1.154745 -0.9719067,0.254152 -2.8265922,0.362202 -4.2585176,0.248092 z M 2.8379842,14.251113 C 2.3799322,13.842858 2.2693707,13.36962 2.4704476,12.677941 2.648997,12.06375 3.4273069,11.478588 4.7074,10.996114 5.012106,10.881268 6.5341776,10.465282 8.0897815,10.071699 11.495326,9.2100646 11.998872,9.039676 13.155989,8.3574158 c 0.485973,-0.2865409 0.473899,-0.304187 0.473899,0.6926156 0,1.2641766 -0.114938,1.6241896 -0.658924,2.0638836 -0.815626,0.659257 -1.754604,0.999108 -5.2019256,1.882769 -2.2824607,0.58507 -2.7448549,0.734544 -3.6871468,1.191915 -0.392141,0.190337 -0.7608603,0.346068 -0.8193755,0.346068 -0.058515,0 -0.2495544,-0.127599 -0.4245319,-0.283554 z M 2.3748032,10.846122 C 2.3749198,10.337896 2.5183368,9.576512 2.6705358,9.2761711 2.9806168,8.6642742 3.6242175,8.0350082 4.3854207,7.5994811 5.3649245,7.0390519 6.2289941,6.7539177 9.1103276,6.040311 11.660193,5.4087972 12.46403,5.1375007 13.142983,4.6792813 c 0.444275,-0.2998382 0.455325,-0.2819971 0.473764,0.7648961 0.02367,1.343623 -0.07676,1.6409863 -0.715819,2.1194755 C 12.143049,8.1311087 11.1608,8.4769976 8.3230491,9.175705 4.7497882,10.055509 3.8617966,10.354533 2.8643806,11.013864 2.4263448,11.303423 2.3747069,11.285732 2.3748032,10.846122 Z M 6.6901754,4.9940843 C 4.8959404,4.7780919 3.592632,4.3246281 2.8596524,3.6613194 2.5105585,3.3454079 2.3747232,3.0598857 2.3747232,2.6420122 c 0,-0.4321415 0.4449097,-1.0060076 1.0589152,-1.3658387 C 4.1731256,0.8428052 5.4145266,0.5133472 6.6404005,0.42512418 8.6067464,0.28361116 10.253685,0.40697362 11.372335,0.77956516 12.545862,1.1704344 13.41559,1.780132 13.557729,2.3115736 13.700614,2.8458067 13.600992,3.192683 13.186599,3.6038157 12.102501,4.6793848 9.2129041,5.2977734 6.6901754,4.9940843 Z"
     style="fill:#727272;fill-opacity:1;stroke:none;stroke-width:0.05831693" />
  <path
     inkscape:connector-curvature="0"
     id="path4682"
     d="m 6.7193338,15.554821 c -1.107839,-0.09904 -2.2452014,-0.364781 -2.2452014,-0.52459 0,-0.215929 1.1499233,-0.602071 3.7322828,-1.253294 1.1707122,-0.295233 2.4417038,-0.639421 2.8244268,-0.764863 0.758787,-0.248704 1.74036,-0.695166 2.153895,-0.979685 0.438636,-0.301789 0.445151,-0.293056 0.445151,0.59659 0,1.000795 -0.06894,1.218704 -0.509899,1.611728 -0.821472,0.732164 -2.269482,1.202347 -4.1295937,1.340916 -0.9686509,0.07215 -1.1937697,0.0695 -2.2710615,-0.02681 z M 2.8702597,14.230761 C 2.3945062,13.811986 2.2638266,13.306991 2.4724567,12.693494 2.6739275,12.101048 3.5262142,11.474098 4.7374555,11.027339 5.0686774,10.905169 6.4504998,10.527793 7.8081716,10.188724 11.4584,9.2771058 11.833839,9.1549441 12.971801,8.5085691 c 0.2635,-0.149671 0.519365,-0.2721294 0.568589,-0.2721294 0.07621,0 0.08951,0.1217284 0.08951,0.8197715 0,0.4508744 -0.03037,0.9429235 -0.0675,1.0934418 -0.09534,0.386535 -0.352998,0.73567 -0.769361,1.042506 -0.811992,0.598392 -1.689964,0.905602 -5.0531472,1.768151 -2.2679947,0.581666 -2.7866408,0.749409 -3.709727,1.199815 -0.3564495,0.173925 -0.7004691,0.316226 -0.7644888,0.316226 -0.06402,0 -0.2419524,-0.110515 -0.3954045,-0.24559 z M 2.4136015,11.171725 C 2.3473772,11.1055 2.3706662,10.542265 2.4586407,10.082463 2.6455248,9.1057089 3.2099154,8.377619 4.3132389,7.6899476 5.1974173,7.1388631 6.1520548,6.8204358 9.1639372,6.0719544 11.695051,5.4429487 12.43036,5.1950359 13.146089,4.7293536 c 0.198989,-0.1294695 0.389248,-0.2184337 0.422799,-0.1976981 0.03814,0.023575 0.061,0.371128 0.061,0.927587 0,1.1864659 -0.06305,1.4035861 -0.544626,1.8753508 -0.688051,0.6740371 -1.687,1.0448493 -5.024641,1.8651597 -3.290183,0.808647 -4.094925,1.07733 -5.0810384,1.696432 -0.5573418,0.349909 -0.5131353,0.328389 -0.5659832,0.27554 z M 6.6318584,4.9451832 C 5.3153913,4.7753168 4.5548255,4.5746116 3.7480482,4.1841757 2.3105531,3.4885072 1.9884185,2.5863461 2.8809416,1.7557824 3.4424303,1.2332721 4.0020762,0.97649443 5.28873,0.65103813 c 1.3082642,-0.33092291 3.6700704,-0.3659498 5.149368,-0.0763677 1.038091,0.20321292 2.122773,0.68087637 2.669364,1.17551347 0.273548,0.2475462 0.363687,0.3749943 0.442863,0.6261688 0.08553,0.2713189 0.08894,0.3502988 0.02448,0.5655174 C 13.318293,3.7983153 11.921459,4.543601 9.9267585,4.8882979 9.2000551,5.0138769 7.4044796,5.0448769 6.6318524,4.945183 Z"
     style="fill:#727272;fill-opacity:1;stroke:none;stroke-width:0.05831693" />
  <path
     inkscape:connector-curvature="0"
     id="path4680"
     d="m 7.0692353,15.579302 c -1.1268421,-0.09095 -2.5659444,-0.400227 -2.5659444,-0.551454 0,-0.08286 0.4508515,-0.291738 1.1231296,-0.520351 0.3276909,-0.111435 1.5474153,-0.442603 2.7104987,-0.735932 1.1630838,-0.293327 2.4558508,-0.651707 2.8728168,-0.796402 0.786845,-0.273048 1.7193,-0.71174 2.067002,-0.972461 0.340983,-0.255684 0.353188,-0.235174 0.352825,0.592928 -4.07e-4,0.988566 -0.04433,1.129467 -0.486111,1.560461 -0.810364,0.790568 -2.326543,1.29036 -4.3247091,1.425592 -0.9583334,0.06486 -0.9156717,0.06493 -1.7495076,-0.0024 z M 2.8438787,14.15336 C 2.5950387,13.916006 2.4859236,13.761321 2.4323433,13.56995 2.2319786,12.854318 2.6495714,12.143406 3.5993785,11.583181 4.370603,11.128289 5.1067486,10.888674 7.783204,10.221349 c 3.629284,-0.904895 4.088149,-1.0543274 5.21212,-1.6973597 0.276437,-0.1581521 0.535,-0.2875496 0.574583,-0.2875496 0.05499,0 0.067,0.2235404 0.05091,0.9476501 -0.02504,1.1263002 -0.08868,1.3096512 -0.627889,1.8088622 -0.693493,0.642052 -1.801024,1.055582 -5.048932,1.885167 -2.2903888,0.585015 -3.1077862,0.8485 -3.9634271,1.277597 -0.3516494,0.17635 -0.6750698,0.320635 -0.7187112,0.320635 -0.043642,0 -0.2317293,-0.145347 -0.417972,-0.322991 z M 2.3747232,10.865832 c 0,-0.924049 0.3360373,-1.7368804 0.9913878,-2.3980421 C 4.3696365,7.455366 5.5008209,6.9920106 9.139486,6.102903 c 2.471801,-0.6039845 3.272835,-0.8729349 4.022703,-1.3506394 0.266618,-0.1698492 0.390855,-0.2203582 0.421904,-0.1715269 0.06856,0.1078129 0.05281,1.732785 -0.0193,1.9925472 -0.20351,0.7330602 -0.996769,1.2972672 -2.544359,1.8096863 C 10.347372,8.6058248 9.8296709,8.7422492 7.3899784,9.3396635 4.8566499,9.9600069 3.6777577,10.375466 2.8499776,10.93963 2.4283824,11.226963 2.3747232,11.218631 2.3747232,10.865832 Z M 6.7776508,4.9369382 C 4.9600774,4.7328285 3.6142145,4.2630617 2.8803292,3.5765975 2.2317173,2.9698971 2.2213148,2.4415215 2.8456885,1.817147 3.3644979,1.298338 3.9764108,1.013514 5.2905692,0.67914223 5.9567147,0.50964932 6.2528171,0.46849449 7.2150276,0.41166347 9.0487238,0.30336077 10.58648,0.50945163 11.85337,1.0332969 c 1.281064,0.5297066 1.921973,1.2391723 1.722094,1.9063055 -0.09538,0.3183353 -0.612747,0.8355139 -1.111913,1.1114978 -0.833555,0.4608633 -2.170717,0.809234 -3.5220638,0.9176024 -0.9221767,0.073952 -1.2675975,0.068881 -2.1638364,-0.031764 z"
     style="fill:#727272;fill-opacity:1;stroke:none;stroke-width:0.05831693" />
  <path
     inkscape:connector-curvature="0"
     id="path4678"
     d="M 6.3897942,15.493583 C 5.4642428,15.366887 4.5324494,15.123324 4.5324494,15.008089 c 0,-0.06445 0.658283,-0.340774 1.3121305,-0.550774 0.2565946,-0.08242 1.3587843,-0.37457 2.4493107,-0.649236 2.8593394,-0.72017 3.9442634,-1.102048 4.9026864,-1.725671 0.194683,-0.126676 0.374281,-0.230319 0.399108,-0.230319 0.02483,0 0.03612,0.373958 0.02509,0.831017 -0.019,0.787441 -0.02862,0.845598 -0.183519,1.109116 -0.469973,0.799525 -1.881997,1.425894 -3.8426916,1.704601 -0.7398481,0.105168 -2.4252679,0.103464 -3.2047731,-0.0033 z M 2.9500669,14.228504 C 2.5330373,13.88826 2.3558688,13.546942 2.3939207,13.157082 2.445711,12.626467 2.7480285,12.173727 3.3010443,11.79861 4.1782615,11.203582 4.891629,10.959858 8.0236927,10.185106 11.32989,9.3672808 11.855852,9.1943804 12.992117,8.5518292 c 0.306747,-0.1734643 0.578484,-0.3153895 0.603858,-0.3153895 0.0814,0 0.0054,1.8190753 -0.08399,2.0119343 -0.269004,0.579976 -0.767203,1.019389 -1.582598,1.395859 -0.589332,0.272094 -2.2897285,0.795277 -3.7229677,1.145493 -2.4217565,0.591762 -3.3096427,0.875846 -4.2946277,1.374089 -0.3398215,0.171895 -0.626876,0.312536 -0.6378991,0.312536 -0.011023,0 -0.1567431,-0.111531 -0.3238216,-0.247847 z M 2.3947814,11.062123 C 2.3338986,10.903467 2.4370244,10.160295 2.5775658,9.7448892 2.6524291,9.5236132 2.7947993,9.2161559 2.893945,9.061651 3.1493032,8.6637102 3.7856982,8.0728635 4.3054081,7.7512095 5.2216288,7.1841521 5.9853997,6.9261894 9.0228522,6.1578981 11.906798,5.4284348 12.32835,5.2894385 13.089893,4.8168921 13.32212,4.6727917 13.538622,4.5712674 13.571007,4.5912825 c 0.03518,0.02174 0.05889,0.3711685 0.05889,0.86796 0,1.1143161 -0.06796,1.340566 -0.544925,1.8141024 C 12.44705,7.9066744 11.308208,8.3555758 8.7895844,8.9664719 4.8912856,9.9120104 3.9114796,10.23126 2.9003331,10.885368 c -0.2269374,0.146806 -0.4257397,0.266918 -0.4417834,0.266918 -0.016043,0 -0.04474,-0.04058 -0.063768,-0.09016 z M 6.6901754,4.9094322 C 4.8799773,4.6871252 3.539872,4.2009767 2.834407,3.5106789 2.2639095,2.9524472 2.2419712,2.5197873 2.7552184,1.9489328 3.2651964,1.3817148 3.9247934,1.0517017 5.203094,0.72419964 6.2138212,0.46525032 6.7523158,0.40443859 8.0314646,0.40479315 9.6278161,0.40525969 10.807244,0.6108916 11.923308,1.0834092 13.207806,1.6272373 13.811629,2.356133 13.521321,3.0124228 13.1803,3.7833575 11.86778,4.4746648 10.130874,4.7981795 9.3670469,4.9404491 7.4480074,5.0025 6.6901754,4.9094322 Z"
     style="fill:#727272;fill-opacity:1;stroke:none;stroke-width:0.05831693" />
  <path
     inkscape:connector-curvature="0"
     id="path4676"
     d="M 6.3111154,15.460103 C 5.477086,15.329163 4.637302,15.11411 4.6077061,15.023892 c -0.053661,-0.163578 1.1643137,-0.556486 3.7123572,-1.197575 1.1402801,-0.286895 2.3881477,-0.626604 2.7730397,-0.754912 0.823604,-0.274554 1.789815,-0.723731 2.192233,-1.019133 0.360296,-0.264483 0.365811,-0.252596 0.333897,0.71989 -0.02224,0.677555 -0.03755,0.762631 -0.176402,0.980101 -0.472702,0.740336 -1.744777,1.362584 -3.33358,1.630654 C 9.8164376,15.432328 9.4347126,15.49786 9.2609729,15.528559 8.737893,15.620985 7.092648,15.582801 6.3111154,15.4601 Z M 2.8068289,14.048879 C 2.5233032,13.758296 2.4379399,13.628236 2.4057695,13.437819 2.3509334,13.113245 2.4114323,12.872241 2.6359422,12.520957 2.8948986,12.115772 3.258757,11.81221 3.8681315,11.492961 4.6458145,11.085537 5.1716581,10.922699 7.989173,10.216799 11.573812,9.3187033 11.883076,9.2173298 13.003105,8.5732922 l 0.568713,-0.3270203 0.03705,0.1476135 c 0.02037,0.081188 0.02327,0.4922969 0.0064,0.9135762 -0.02774,0.6935764 -0.04606,0.7953714 -0.193863,1.0771744 -0.325367,0.62032 -1.111749,1.148501 -2.299164,1.544256 -0.902978,0.300955 -2.1590991,0.656654 -3.2575916,0.922462 -2.0589862,0.498226 -2.9769709,0.796303 -3.9359681,1.278043 -0.3160235,0.15875 -0.6166846,0.288637 -0.6681358,0.288637 -0.05145,0 -0.2556329,-0.16612 -0.4537371,-0.369155 z m -0.404362,-2.9572 C 2.2675263,10.873341 2.5571082,9.6812334 2.8790135,9.1299034 3.2694273,8.4612385 4.2453831,7.7115593 5.3099515,7.2625813 5.9638947,6.9867831 6.6179412,6.7978776 9.2024053,6.1383434 11.632312,5.5182507 12.427593,5.2534694 13.106131,4.8386339 13.346087,4.6919332 13.565283,4.593965 13.593236,4.6209267 c 0.02796,0.026962 0.03826,0.4644035 0.02291,0.9720925 -0.0296,0.9787561 -0.0574,1.0892375 -0.38292,1.5216581 -0.220063,0.2923346 -0.929755,0.7344569 -1.59653,0.994604 C 10.84901,8.4166017 9.9259035,8.6776054 8.0023101,9.1368839 4.8301734,9.8942658 3.5891898,10.335576 2.5698143,11.068755 c -0.091623,0.0659 -0.1369469,0.07211 -0.1673434,0.02293 z M 6.6901754,4.8782076 C 4.7950614,4.6522113 3.5660003,4.1986282 2.8347901,3.4553836 2.2867207,2.8982937 2.2507549,2.6401462 2.6477898,2.113162 3.1068181,1.5038935 3.8332376,1.1116661 5.1409875,0.76696812 6.2127703,0.48446691 6.7938058,0.41061435 7.9731476,0.40698413 8.8250143,0.40435964 9.2074952,0.43024962 9.7909933,0.53002059 11.682324,0.85341597 12.894527,1.4165593 13.425081,2.21828 13.643777,2.5487523 13.636145,2.8438887 13.400034,3.1870714 12.529081,4.4529603 9.508398,5.2142859 6.6901803,4.8782076 Z"
     style="fill:#727272;fill-opacity:1;stroke:none;stroke-width:0.05831693" />
  <path
     inkscape:connector-curvature="0"
     id="path4674"
     d="M 7.010542,15.538623 C 6.9786749,15.510676 6.7017461,15.45774 6.3951454,15.420998 5.7808431,15.347392 4.8442944,15.145705 4.7074,15.057541 c -0.077756,-0.05007 -0.077756,-0.06266 0,-0.113207 0.2591523,-0.168478 1.6158867,-0.575843 3.5022891,-1.051573 1.1689114,-0.294786 2.4382069,-0.638538 2.8206559,-0.763891 1.05792,-0.346746 2.116547,-0.860433 2.44018,-1.184065 0.09585,-0.09585 0.101047,-0.05723 0.101047,0.751176 0,0.468722 -0.0246,0.883917 -0.05467,0.922657 -0.775597,0.999279 -1.738948,1.457145 -3.7942488,1.803347 C 8.9496333,15.552195 7.115907,15.631057 7.01054,15.538623 Z M 2.9076466,14.079965 C 2.7267989,13.890923 2.5404057,13.68792 2.4934396,13.62885 2.3970604,13.507629 2.3748819,12.918747 2.4642812,12.854642 c 0.030929,-0.02218 0.10799,-0.141887 0.171247,-0.266021 0.2679399,-0.5258 1.0430418,-1.052816 2.1533255,-1.464118 0.3174306,-0.117592 1.7738957,-0.51283 3.2365888,-0.878308 C 9.4881354,9.8807181 10.934189,9.5017741 11.238895,9.4040986 11.819518,9.2179754 13.248627,8.5327655 13.452677,8.3426633 l 0.118895,-0.1107672 v 0.9353424 c 0,0.5144387 -0.01968,0.9354415 -0.04373,0.9355615 -0.02405,1.16e-4 -0.09016,0.113127 -0.146894,0.251125 -0.197763,0.481014 -0.909625,1.037443 -1.726587,1.349592 -0.748392,0.285948 -1.9225258,0.628725 -3.8269978,1.117251 -2.1815346,0.559598 -2.9115644,0.791816 -3.7031245,1.17794 -0.9938807,0.484816 -0.8403305,0.47456 -1.2165843,0.08126 z M 2.4157055,11.074594 c -0.042737,-0.111371 0.010559,-0.730874 0.076097,-0.884537 0.02736,-0.06415 0.080977,-0.2216046 0.1191496,-0.3499018 C 2.9169936,8.8115612 3.8931373,7.9016456 5.3541534,7.2830721 5.9698209,7.0224071 7.2208876,6.6636028 9.2539102,6.1646282 11.303189,5.6616632 12.314285,5.3337843 12.966144,4.9608229 c 0.284874,-0.162991 0.537233,-0.3258585 0.560797,-0.3619278 0.02356,-0.03607 0.04324,0.3849178 0.04373,0.9355268 4.66e-4,0.550609 -0.01879,1.0098546 -0.04284,1.0205464 -0.02405,0.010691 -0.108683,0.1483379 -0.188061,0.3058811 C 13.07182,7.3926577 12.318001,7.8569043 11.021848,8.2883639 10.25541,8.543494 9.9392093,8.6274832 7.377401,9.2563981 5.4170225,9.7376637 4.233582,10.104084 3.5834669,10.431084 3.1176931,10.665361 2.5402447,11.020441 2.4848933,11.10661 c -0.019592,0.0305 -0.050727,0.0161 -0.069188,-0.03202 z M 6.5707277,4.8289899 C 4.7928927,4.6023697 3.5925578,4.1597564 2.934238,3.4880658 2.7387649,3.2886227 2.5425979,3.0788119 2.4983114,3.0218195 2.404129,2.900616 2.3795682,2.4763194 2.4632793,2.4166322 2.4949396,2.3940576 2.5991868,2.2601883 2.6949403,2.1191442 2.8896552,1.8323287 3.3065349,1.4995529 3.7451709,1.2807927 4.3247728,0.99172914 5.9950902,0.54023773 6.488982,0.53913321 c 0.1299009,-2.916e-4 0.2654441,-0.0297889 0.3012071,-0.0655518 0.089241,-0.0892407 2.3358443,-0.0883899 2.4251526,9.2141e-4 0.035258,0.0352579 0.1329597,0.0641049 0.2171157,0.0641049 0.3122748,0 1.2696856,0.19235081 1.8064376,0.36292609 1.029761,0.32725009 1.890234,0.84864069 2.12725,1.28897789 0.06342,0.1178306 0.135592,0.2142377 0.160372,0.2142377 0.09075,0 0.04524,0.5232748 -0.05701,0.6553989 -0.657778,0.8500188 -1.758299,1.3849583 -3.5246075,1.7132404 -0.6720244,0.124901 -2.5834357,0.1563997 -3.3741768,0.055604 z"
     style="fill:#727272;fill-opacity:1;stroke:none;stroke-width:0.05831693" />
  <path
     inkscape:connector-curvature="0"
     id="path4672"
     d="m 7.5211915,15.541026 c 0.2485759,-0.01093 0.6553364,-0.01093 0.9039123,0 0.2485758,0.01093 0.045196,0.01988 -0.4519562,0.01988 -0.4971518,0 -0.7005321,-0.0089 -0.4519561,-0.01988 z M 6.3985908,15.383104 C 5.6996263,15.282973 4.7657169,15.064922 4.7657169,15.00186 c 0,-0.129105 1.4180267,-0.560464 3.829341,-1.164873 2.1675281,-0.543302 3.1795111,-0.873606 4.0413431,-1.319068 0.638107,-0.329821 0.835357,-0.464555 0.892364,-0.609536 0.01848,-0.047 0.03382,0.308187 0.03411,0.789302 2.92e-4,0.481114 -0.01954,0.823496 -0.04406,0.760849 -0.03803,-0.09722 -0.05006,-0.08636 -0.08216,0.07409 -0.02109,0.105439 -0.151177,0.309115 -0.296234,0.463806 -0.571179,0.609107 -1.582735,1.037762 -3.1553423,1.3371 -0.6526879,0.124235 -2.8530144,0.154648 -3.5864908,0.04957 z M 2.9286249,14.062872 C 2.7508167,13.894708 2.5893418,13.69339 2.5697928,13.6155 c -0.023397,-0.09322 -0.0504,-0.117584 -0.079013,-0.07128 -0.060126,0.09729 -0.095938,-0.272157 -0.050967,-0.525785 0.019905,-0.11226 0.040797,-0.151624 0.046426,-0.08748 0.00697,0.07939 0.035173,0.04676 0.088321,-0.102173 0.2238326,-0.62722 0.9514645,-1.175766 2.1802305,-1.643629 0.2986978,-0.113737 1.747574,-0.508916 3.2197261,-0.878179 2.7368516,-0.686492 3.3792946,-0.866511 3.9933406,-1.1189755 0.538112,-0.2212446 1.5387,-0.790594 1.565895,-0.8910169 0.01336,-0.049337 0.02549,0.3301795 0.02695,0.8433684 0.0017,0.5694818 -0.01687,0.887621 -0.04746,0.8164371 -0.04888,-0.1137549 -0.05022,-0.1135706 -0.05422,0.00745 -0.01245,0.3772489 -0.384854,0.8682719 -0.939292,1.2385109 -0.680802,0.454621 -1.872581,0.851722 -4.8381819,1.612077 -2.2515947,0.577297 -2.7855806,0.749719 -3.6736913,1.186231 -0.3687099,0.181223 -0.6896338,0.338061 -0.713164,0.348529 -0.02353,0.01047 -0.1882616,-0.118557 -0.3660705,-0.28672 z M 2.446705,10.68575 c 1.166e-4,-0.342159 0.013923,-0.441504 0.044652,-0.320742 l 0.044517,0.174951 0.00813,-0.20411 C 2.5671825,9.7539284 3.0793083,8.8453605 3.6668735,8.3437538 4.6761107,7.4821644 5.6483477,7.109521 9.197803,6.2238314 11.089759,5.7517345 11.66576,5.5890115 12.230283,5.3671402 12.775444,5.1528785 13.501425,4.7371902 13.53375,4.62079 c 0.01336,-0.048111 0.02472,0.3717703 0.02524,0.9330708 5.25e-4,0.5613005 -0.01774,0.9549397 -0.0406,0.874754 C 13.4796,6.2925206 13.47448,6.2969911 13.44132,6.4958268 13.34944,7.0467226 12.692584,7.6031 11.655261,8.0086913 10.80169,8.3424383 10.341593,8.4764546 8.5563168,8.9113479 5.749966,9.5949745 4.5743226,9.9332611 3.785066,10.284257 3.2402291,10.526554 2.5008015,10.979815 2.4712739,11.089596 2.4576867,11.140113 2.4466303,10.958382 2.446705,10.68575 Z M 6.4277491,4.7599398 C 5.2281696,4.6083828 4.0491274,4.241236 3.3863609,3.8128693 3.0148651,3.5727602 2.5502117,3.0862922 2.5487812,2.9359678 c -7.815e-4,-0.08189 -0.0081,-0.082702 -0.057424,-0.00637 -0.040248,0.062279 -0.056531,-0.00491 -0.056531,-0.2332678 0,-0.1764087 0.020017,-0.2892543 0.044481,-0.250768 0.029904,0.047043 0.067645,0.017645 0.1151625,-0.089705 C 2.7731882,1.9521052 3.4316427,1.44057 4.125322,1.166582 4.7807843,0.9076892 6.1381363,0.60049777 6.8651262,0.54651904 7.3746821,0.50868477 7.4587283,0.49229246 7.2150276,0.47827423 6.9497391,0.46301386 6.9872941,0.4540313 7.4322417,0.42631852 7.7281181,0.40789036 8.239849,0.40775038 8.5694218,0.42602693 c 0.4480635,0.0248214 0.5183126,0.0379509 0.2784795,0.052048 -0.2804378,0.0164832 -0.251733,0.0244913 0.2284299,0.0637264 1.1945238,0.097608 2.2532178,0.36594049 3.1395908,0.79574777 0.560063,0.2715784 1.158194,0.8234736 1.21833,1.1241529 0.03363,0.1681597 0.0471,0.1818821 0.08456,0.086126 0.03081,-0.078752 0.04456,-0.032914 0.04456,0.148522 0,0.1814362 -0.01375,0.2272731 -0.04456,0.1485221 -0.03794,-0.096993 -0.05019,-0.085736 -0.08251,0.075827 -0.04937,0.2468229 -0.537164,0.7294118 -1.019665,1.0087728 -0.660284,0.3822948 -1.891843,0.7348892 -3.0170959,0.863793 -0.7124928,0.08162 -2.1935317,0.065021 -2.9718,-0.033306 z"
     style="fill:#cc0000;fill-opacity:1;stroke:#000000;stroke-width:0.258;stroke-opacity:1;stroke-miterlimit:4;stroke-dasharray:none" />
</svg>
