<?xml version="1.0" encoding="UTF-8" standalone="no"?>
<svg
   xmlns:dc="http://purl.org/dc/elements/1.1/"
   xmlns:cc="http://creativecommons.org/ns#"
   xmlns:rdf="http://www.w3.org/1999/02/22-rdf-syntax-ns#"
   xmlns:svg="http://www.w3.org/2000/svg"
   xmlns="http://www.w3.org/2000/svg"
   xmlns:sodipodi="http://sodipodi.sourceforge.net/DTD/sodipodi-0.dtd"
   xmlns:inkscape="http://www.inkscape.org/namespaces/inkscape"
   version="1.1"
   id="Layer_1"
   x="0px"
   y="0px"
   viewBox="0 0 23.4 23.4"
   enable-background="new 0 0 24 24"
   xml:space="preserve"
   sodipodi:docname="abort_state.svg"
   width="23.4"
   height="23.4"
   inkscape:version="1.0.2-2 (e86c870879, 2021-01-15)"><metadata
   id="metadata21"><rdf:RDF><cc:Work
       rdf:about=""><dc:format>image/svg+xml</dc:format><dc:type
         rdf:resource="http://purl.org/dc/dcmitype/StillImage" /></cc:Work></rdf:RDF></metadata><defs
   id="defs19" /><sodipodi:namedview
   pagecolor="#ffffff"
   bordercolor="#666666"
   borderopacity="1"
   objecttolerance="10"
   gridtolerance="10"
   guidetolerance="10"
   inkscape:pageopacity="0"
   inkscape:pageshadow="2"
   inkscape:window-width="1729"
   inkscape:window-height="1077"
   id="namedview17"
   showgrid="false"
   inkscape:zoom="14.849242"
   inkscape:cx="-10.502206"
   inkscape:cy="5.170226"
   inkscape:window-x="0"
   inkscape:window-y="0"
   inkscape:window-maximized="0"
   inkscape:current-layer="g14" />
<g
   id="g14"
   transform="translate(-0.30000019,-0.30000019)">
	<circle
   fill="#eef8fe"
   stroke="#878888"
   stroke-miterlimit="10"
   cx="12"
   cy="12"
   id="circle2"
   r="11.2" />
	<g
   id="g12">
		<g
   id="g6">
			<path
   fill="#878888"
   d="M 19.3,20.1 C 16.7,17.5 14.2,15 11.6,12.4 9.1,9.8 6.6,7.3 3.9,4.6 L 4.6,3.9 c 2.6,2.6 5.2,5.2 7.7,7.7 2.5,2.5 5.1,5.1 7.7,7.7 z"
   id="path4" />
		</g>
		<g
   id="g10">
			<path
   fill="#878888"
   d="M 4.6,20.1 3.9,19.4 C 6.5,16.8 9,14.3 11.6,11.7 14.2,9.1 16.7,6.6 19.3,4 L 20,4.7 c -2.6,2.6 -5.2,5.2 -7.7,7.7 -2.5,2.5 -5,5 -7.7,7.7 z"
   id="path8" />
		</g>
	</g>
</g>
</svg>
