<?xml version="1.0" encoding="UTF-8" standalone="no"?>
<svg
   xmlns:dc="http://purl.org/dc/elements/1.1/"
   xmlns:cc="http://creativecommons.org/ns#"
   xmlns:rdf="http://www.w3.org/1999/02/22-rdf-syntax-ns#"
   xmlns:svg="http://www.w3.org/2000/svg"
   xmlns="http://www.w3.org/2000/svg"
   xmlns:sodipodi="http://sodipodi.sourceforge.net/DTD/sodipodi-0.dtd"
   xmlns:inkscape="http://www.inkscape.org/namespaces/inkscape"
   version="1.1"
   id="Layer_1"
   x="0px"
   y="0px"
   viewBox="0 0 24 24"
   enable-background="new 0 0 24 24"
   xml:space="preserve"
   sodipodi:docname="action.svg"
   inkscape:version="1.0.2-2 (e86c870879, 2021-01-15)"><metadata
   id="metadata15"><rdf:RDF><cc:Work
       rdf:about=""><dc:format>image/svg+xml</dc:format><dc:type
         rdf:resource="http://purl.org/dc/dcmitype/StillImage" /></cc:Work></rdf:RDF></metadata><defs
   id="defs13" /><sodipodi:namedview
   pagecolor="#ffffff"
   bordercolor="#666666"
   borderopacity="1"
   objecttolerance="10"
   gridtolerance="10"
   guidetolerance="10"
   inkscape:pageopacity="0"
   inkscape:pageshadow="2"
   inkscape:window-width="1781"
   inkscape:window-height="1271"
   id="namedview11"
   showgrid="false"
   inkscape:zoom="59.39697"
   inkscape:cx="15.613256"
   inkscape:cy="13.13083"
   inkscape:window-x="410"
   inkscape:window-y="90"
   inkscape:window-maximized="0"
   inkscape:current-layer="g8"
   inkscape:document-rotation="0" />
<g
   id="g8">
	<path
   fill-rule="evenodd"
   clip-rule="evenodd"
   fill="#EEF8FF"
   d="M10.8,23h2.4c0.4-1.1,0.7-2.5,2.1-3c1.5-0.6,2.7,0.2,3.6,0.7   l1.7-1.7c-0.5-1-1.3-2.2-0.7-3.6c0.6-1.4,1.7-1.7,3-2.1v-2.4c-1.2-0.4-2.5-0.7-3-2.1c-0.6-1.4,0.1-2.4,0.7-3.6l-1.7-1.7   c-1.1,0.5-2.2,1.3-3.6,0.7c-1.4-0.6-1.7-1.7-2.1-3h-2.4c-0.4,1.2-0.7,2.5-2.1,3C8.3,4.2,8,4.3,7.6,4.3c-0.8,0-1.5-0.4-2.6-0.9   L3.4,5.1C3.9,6.2,4.6,7.3,4,8.7c-0.6,1.4-1.7,1.7-3,2.1v2.4c1.2,0.4,2.5,0.7,3,2.1S4,17.7,3.4,18.9l1.7,1.7   c1.4-0.7,2.4-1.2,3.6-0.7C10.1,20.5,10.4,21.7,10.8,23 M12,8.5c-1.9,0-3.5,1.6-3.5,3.5s1.6,3.5,3.5,3.5s3.5-1.6,3.5-3.5   S13.9,8.5,12,8.5"
   id="path2" />
	<path
   fill-rule="evenodd"
   clip-rule="evenodd"
   fill="#888888"
   d="M 13.2,23 H 10.8 C 10.1,21.1 9.704061,20.289847 8.704061,19.889847 7.704061,19.489847 6.9,19.7 5.1,20.6 L 3.4,18.9 C 4.3,17.1 4.3754655,16.295939 3.9754655,15.295939 3.5754655,14.295939 2.9,13.9 1,13.2 V 10.8 C 2.9,10.1 3.5754655,9.6703893 3.9754655,8.6703893 4.3754655,7.6703893 4.3,7 3.4,5.1 L 5,3.4 C 6.7,4.2 7.704061,4.577496 8.704061,4.177496 9.704061,3.777496 10.1,3.1 10.8,1.2 h 2.4 c 0.7,1.9 1.062267,2.6111678 2.062267,3.0111678 C 16.262267,4.6111678 17.1,4.4 18.9,3.5 l 1.7,1.7 C 19.7,7 19.523519,7.8050763 19.923519,8.8050763 20.323519,9.8050763 21,10.2 22.9,10.9 V 12.660578 13.3 C 21,14 20.323519,14.396954 19.923519,15.396954 19.523519,16.396954 19.6,17.1 20.6,19 l -1.7,1.7 C 17.2,19.9 16.295939,19.590863 15.295939,19.990863 14.295939,20.390863 13.9,21 13.2,23 m -2.4,0 h 2.4 c 0.4,-1.1 0.7,-2.5 2.1,-3 1.58441,-0.459317 1.956811,0.04446 3.6,0.7 L 20.6,19 c -0.5,-1 -1.3,-2.2 -0.7,-3.6 0.6,-1.4 1.7,-1.7 3,-2.1 V 10.9 C 21.7,10.5 20.4,10.2 19.9,8.8 19.3,7.4 20,6.4 20.6,5.2 L 18.9,3.5 C 17.8,4 16.7,4.8 15.3,4.2 13.9,3.6 13.6,2.5 13.2,1.2 H 10.8 C 10.4,2.4 10.1,3.7 8.7,4.2 8.2494924,4.334687 8,4.3 7.6,4.3 6.8,4.3 6.1,3.9 5,3.4 L 3.4,5.1 C 3.9,6.2 4.6,7.3 4,8.7 3.4,10.1 2.3,10.4 1,10.8 v 2.4 c 1.2,0.4 2.5,0.7 3,2.1 0.5,1.4 0,2.4 -0.6,3.6 l 1.7,1.7 c 1.4,-0.7 2.4,-1.2 3.6,-0.7 1.4,0.6 1.7,1.8 2.1,3.1"
   id="path4"
   sodipodi:nodetypes="ccsccsccsccsccsccscccsccsccccccscccccscccsccsccscccc"
   style="stroke:#898989;stroke-width:0.2;stroke-miterlimit:4;stroke-dasharray:none;stroke-opacity:1" />
	<path
   fill-rule="evenodd"
   clip-rule="evenodd"
   fill="#888888"
   d="m 12,8.5 c -1.8,0 -3.5188664,1.750508 -3.5188664,3.550508 0,1.8 1.7188664,3.401015 3.5188664,3.401015 1.8,0 3.451523,-1.668359 3.451523,-3.468359 C 15.451523,10.183164 13.8,8.5 12,8.5"
   id="path6"
   style="fill:#000000;fill-opacity:0;stroke:#898989;stroke-width:0.3;stroke-miterlimit:4;stroke-dasharray:none;stroke-opacity:1"
   sodipodi:nodetypes="csssc" />
</g>
</svg>
