<?xml version="1.0" encoding="UTF-8" standalone="no"?>
<svg
   xmlns:dc="http://purl.org/dc/elements/1.1/"
   xmlns:cc="http://creativecommons.org/ns#"
   xmlns:rdf="http://www.w3.org/1999/02/22-rdf-syntax-ns#"
   xmlns:svg="http://www.w3.org/2000/svg"
   xmlns="http://www.w3.org/2000/svg"
   xmlns:sodipodi="http://sodipodi.sourceforge.net/DTD/sodipodi-0.dtd"
   xmlns:inkscape="http://www.inkscape.org/namespaces/inkscape"
   width="24"
   height="24"
   viewBox="0 0 24 24"
   version="1.1"
   id="svg4"
   sodipodi:docname="iconmonstr-gear-2 (3).svg"
   inkscape:version="1.0.2-2 (e86c870879, 2021-01-15)">
  <metadata
     id="metadata10">
    <rdf:RDF>
      <cc:Work
         rdf:about="">
        <dc:format>image/svg+xml</dc:format>
        <dc:type
           rdf:resource="http://purl.org/dc/dcmitype/StillImage" />
      </cc:Work>
    </rdf:RDF>
  </metadata>
  <defs
     id="defs8" />
  <sodipodi:namedview
     pagecolor="#ffffff"
     bordercolor="#666666"
     borderopacity="1"
     objecttolerance="10"
     gridtolerance="10"
     guidetolerance="10"
     inkscape:pageopacity="0"
     inkscape:pageshadow="2"
     inkscape:window-width="2192"
     inkscape:window-height="1213"
     id="namedview6"
     showgrid="false"
     inkscape:zoom="42"
     inkscape:cx="12"
     inkscape:cy="12"
     inkscape:window-x="0"
     inkscape:window-y="0"
     inkscape:window-maximized="0"
     inkscape:current-layer="svg4" />
  <path
     d="M24 14.187v-4.374c-2.148-.766-2.726-.802-3.027-1.529-.303-.729.083-1.169 1.059-3.223l-3.093-3.093c-2.026.963-2.488 1.364-3.224 1.059-.727-.302-.768-.889-1.527-3.027h-4.375c-.764 2.144-.8 2.725-1.529 3.027-.752.313-1.203-.1-3.223-1.059l-3.093 3.093c.977 2.055 1.362 2.493 1.059 3.224-.302.727-.881.764-3.027 1.528v4.375c2.139.76 2.725.8 3.027 1.528.304.734-.081 1.167-1.059 3.223l3.093 3.093c1.999-.95 2.47-1.373 3.223-1.059.728.302.764.88 1.529 3.027h4.374c.758-2.131.799-2.723 1.537-3.031.745-.308 1.186.099 3.215 1.062l3.093-3.093c-.975-2.05-1.362-2.492-1.059-3.223.3-.726.88-.763 3.027-1.528zm-4.875.764c-.577 1.394-.068 2.458.488 3.578l-1.084 1.084c-1.093-.543-2.161-1.076-3.573-.49-1.396.581-1.79 1.693-2.188 2.877h-1.534c-.398-1.185-.791-2.297-2.183-2.875-1.419-.588-2.507-.045-3.579.488l-1.083-1.084c.557-1.118 1.066-2.18.487-3.58-.579-1.391-1.691-1.784-2.876-2.182v-1.533c1.185-.398 2.297-.791 2.875-2.184.578-1.394.068-2.459-.488-3.579l1.084-1.084c1.082.538 2.162 1.077 3.58.488 1.392-.577 1.785-1.69 2.183-2.875h1.534c.398 1.185.792 2.297 2.184 2.875 1.419.588 2.506.045 3.579-.488l1.084 1.084c-.556 1.121-1.065 2.187-.488 3.58.577 1.391 1.689 1.784 2.875 2.183v1.534c-1.188.398-2.302.791-2.877 2.183zm-7.125-5.951c1.654 0 3 1.346 3 3s-1.346 3-3 3-3-1.346-3-3 1.346-3 3-3zm0-2c-2.762 0-5 2.238-5 5s2.238 5 5 5 5-2.238 5-5-2.238-5-5-5z"
     id="path2" />
  <path
     style="fill:#2a7fff;stroke:#cccccc;stroke-width:0.0238095"
     d="M 9.7979874,23.910714 C 9.7825326,23.868155 9.6329674,23.436905 9.46562,22.952381 9.1177674,21.945237 9.0255171,21.708617 8.8951879,21.489241 8.6657536,21.103046 8.256391,20.869048 7.8102048,20.869048 c -0.3690938,0 -0.5950608,0.08588 -1.826346,0.694115 L 5.0728481,22.013188 3.5319802,20.472457 1.9911124,18.931726 2.0229072,18.85872 C 2.0403944,18.818567 2.2311308,18.426786 2.446766,17.988095 2.911684,17.042261 2.9955798,16.854673 3.0727148,16.588496 3.2075305,16.123275 3.103326,15.6588 2.7897533,15.327243 2.5526531,15.076545 2.3112543,14.966446 1.0714286,14.543539 0.62619048,14.391667 0.20565476,14.246651 0.13690476,14.22128 l -0.125,-0.04613 V 12.000619 9.8260869 L 0.08928571,9.7979874 C 0.13184524,9.7825326 0.56309524,9.6329674 1.047619,9.46562 2.0547634,9.1177674 2.2913827,9.0255171 2.5107593,8.8951879 2.8923802,8.668471 3.131444,8.2549667 3.1306005,7.8230595 3.1298814,7.4549774 3.0411436,7.2216738 2.419201,5.9527019 L 1.9875898,5.0720702 3.5279321,3.5315914 5.0682743,1.9911124 5.14128,2.0228854 c 0.040153,0.017475 0.4640771,0.2243334 0.9420533,0.4596848 1.1717662,0.5769679 1.3619679,0.6483822 1.7268715,0.6483822 0.4461862,0 0.8555488,-0.2339981 1.0849831,-0.6201931 C 9.0255171,2.2913827 9.1177674,2.0547634 9.46562,1.047619 9.6329674,0.56309524 9.7825326,0.13184524 9.7979874,0.08928571 l 0.028099,-0.07738095 h 2.1745326 2.174531 l 0.04613,0.125 c 0.02537,0.06875 0.170386,0.48928572 0.322259,0.93452384 0.313763,0.9198505 0.430679,1.2195081 0.562161,1.440825 0.225807,0.3800897 0.640029,0.619189 1.071239,0.6183469 0.365644,-7.143e-4 0.600996,-0.089231 1.787346,-0.6722298 0.451785,-0.2220175 0.854281,-0.417976 0.894434,-0.4354632 l 0.07301,-0.031795 1.540381,1.5405186 1.540382,1.5405183 -0.431365,0.8805921 c -0.623635,1.273091 -0.711006,1.5026907 -0.711724,1.8703181 -8.43e-4,0.4314467 0.23904,0.8467938 0.61833,1.0706119 0.217143,0.1281353 0.566564,0.2653657 1.393223,0.5471688 0.392858,0.1339229 0.802679,0.275355 0.910715,0.3142938 l 0.196428,0.070798 v 2.1739909 2.17399 l -0.07738,0.0281 c -0.04256,0.01545 -0.473809,0.16502 -0.958333,0.332367 -1.007144,0.347853 -1.243764,0.440103 -1.46314,0.570432 -0.381621,0.226717 -0.620686,0.640221 -0.619841,1.072128 7.19e-4,0.368119 0.08892,0.599706 0.712181,1.869878 l 0.43188,0.880152 -1.542476,1.542475 -1.542475,1.542475 -0.845207,-0.416549 c -1.315751,-0.64845 -1.524716,-0.729775 -1.879137,-0.731323 -0.310533,-0.0014 -0.6429,0.126664 -0.862753,0.332311 -0.251328,0.235087 -0.391437,0.536657 -0.782659,1.684593 -0.133887,0.392858 -0.275214,0.802679 -0.314059,0.910715 l -0.07063,0.196428 H 12.000077 9.8260869 Z m 3.1172616,-2.291666 c 0.331066,-0.922669 0.571426,-1.346882 1.012058,-1.786185 0.367886,-0.366776 0.731369,-0.593626 1.234874,-0.770686 0.466254,-0.163961 1.032292,-0.220422 1.480676,-0.147695 0.413359,0.06705 0.906982,0.241456 1.538928,0.543741 l 0.348452,0.166678 0.547363,-0.550546 0.547364,-0.550545 -0.150156,-0.309524 c -0.420241,-0.866262 -0.581951,-1.431936 -0.581951,-2.035715 0,-0.362276 0.04442,-0.638622 0.156917,-0.97619 0.28493,-0.854995 0.821825,-1.479836 1.62238,-1.888133 0.327385,-0.166972 0.478418,-0.230593 0.946894,-0.398868 L 22,12.778544 V 12.000452 11.222361 L 21.619048,11.084802 C 21.123381,10.90582 21.038297,10.870734 20.745258,10.72448 20.242715,10.473661 19.827088,10.137675 19.535164,9.7462574 19.136818,9.2121483 18.892857,8.4867155 18.892857,7.8363202 c 0,-0.6213838 0.148976,-1.1406631 0.591714,-2.0625107 L 19.627509,5.4761905 19.077616,4.9243869 18.527723,4.3725833 18.323385,4.4749567 C 17.795914,4.7392202 17.305407,4.928869 16.869048,5.0372588 16.580259,5.1089926 15.987665,5.1267974 15.678571,5.0730274 15.209915,4.9914998 14.643235,4.7500005 14.260713,4.468785 14.018462,4.2906914 13.695513,3.9502007 13.529238,3.6975786 13.30206,3.3524279 13.13772,2.9999452 12.91538,2.3809524 L 12.778544,2 H 11.999796 11.221049 L 11.108246,2.3214286 C 10.821121,3.1395876 10.558638,3.6446157 10.219347,4.0317014 9.4873538,4.8668102 8.2733321,5.2765102 7.202381,5.0498474 6.7603924,4.9563019 6.3630614,4.8077714 5.7380952,4.5024669 L 5.4761905,4.3745229 4.9261933,4.9215948 4.3761962,5.4686669 4.5723224,5.8890952 C 4.8089681,6.3963833 4.9228898,6.6959102 5.0174821,7.0595238 5.1106179,7.4175379 5.1347795,7.966451 5.0730274,8.3214286 4.972711,8.898091 4.675229,9.5285188 4.3106093,9.937156 3.8571398,10.445368 3.3442348,10.747201 2.3214286,11.107744 L 2,11.221049 V 12 12.778951 l 0.3214286,0.113305 c 1.3534024,0.477079 1.9855524,0.951882 2.430264,1.825354 0.4115522,0.808343 0.4693693,1.655897 0.173851,2.54852 -0.089632,0.270735 -0.2781419,0.713055 -0.4505869,1.057255 l -0.1023734,0.204338 0.5518036,0.549956 0.5518036,0.549957 0.1428571,-0.07357 c 0.2958426,-0.152354 0.8717584,-0.397774 1.1216953,-0.477996 0.481349,-0.1545 0.592014,-0.171489 1.1044952,-0.169564 0.42378,0.0016 0.4847359,0.0072 0.6986907,0.06468 0.5042741,0.13539 0.9733105,0.367703 1.3218719,0.654722 0.5313743,0.437554 0.8934743,1.038391 1.2514043,2.076474 0.04741,0.1375 0.09105,0.263539 0.09697,0.280088 0.0084,0.02359 0.178649,0.02873 0.787577,0.02381 L 12.778559,22 Z"
     id="path12" />
  <path
     style="fill:#3771c8;stroke:#cccccc;stroke-width:0.0238095"
     d="M 11.5,16.962103 C 9.1344286,16.71797 7.2752248,14.84584 7.0366417,12.467715 6.8199212,10.307511 8.0915406,8.2114004 10.120985,7.38355 c 1.857882,-0.7578669 3.976244,-0.3280774 5.399893,1.0955718 0.825885,0.8258847 1.32502,1.8823582 1.44248,3.0531632 0.155234,1.547327 -0.459162,3.115307 -1.636369,4.176122 -1.032755,0.930645 -2.452045,1.395595 -3.826989,1.253696 z m 1.095238,-2.009568 c 0.386155,-0.08007 0.746347,-0.231097 1.095238,-0.459227 0.214503,-0.140257 0.662575,-0.588329 0.802832,-0.802832 C 14.853101,13.140225 14.998812,12.65295 14.998812,12 c 0,-0.275479 -0.01184,-0.436985 -0.04275,-0.583333 C 14.824719,10.794907 14.547033,10.287892 14.098914,9.8516433 13.84018,9.5997621 13.647616,9.4601688 13.357143,9.3139195 12.900301,9.0839055 12.541338,9.0011884 12,9.0011884 c -0.540821,0 -0.901463,0.082928 -1.357143,0.3120704 -0.288808,0.1452293 -0.481821,0.28532 -0.7417713,0.5383845 C 9.453201,10.287665 9.1764242,10.79282 9.0436022,11.416667 c -0.059873,0.281213 -0.059873,0.885453 0,1.166666 0.087824,0.412497 0.2638894,0.825602 0.4870861,1.142857 0.14259,0.20268 0.4770137,0.545915 0.6716927,0.689391 0.410671,0.30266 0.897968,0.501955 1.396066,0.570964 0.228236,0.03162 0.769306,0.01316 0.996791,-0.03401 z"
     id="path14" />
  <path
     style="fill:#3771c8;stroke:#cccccc;stroke-width:0.0238095"
     d="M 9.832965,23.93465 C 9.8269836,23.918212 9.6894445,23.524405 9.5273229,23.059524 9.0228005,21.612816 8.9757133,21.505515 8.731941,21.247026 8.4069298,20.902395 7.9329919,20.769938 7.4588205,20.89121 c -0.2663103,0.06811 -0.5103993,0.17513 -1.4743422,0.646417 -0.4799654,0.234662 -0.8817826,0.426659 -0.8929269,0.426659 -0.011144,0 -0.7053509,-0.685151 -1.5426812,-1.522559 L 2.0264512,18.919169 2.1954275,18.566727 C 2.2883644,18.372885 2.5043469,17.924087 2.6753886,17.5694 2.8464302,17.214714 3.0189624,16.827244 3.0587931,16.708357 3.2478531,16.144051 3.1381193,15.631342 2.7499002,15.265116 2.4928402,15.022618 2.2970439,14.938981 0.69047619,14.3854 L 0.04761905,14.163889 V 12.001667 9.8394455 L 0.92857143,9.5327348 C 2.3639445,9.0329981 2.494514,8.9756864 2.7529736,8.731941 3.1337831,8.3728107 3.2477893,7.8551867 3.0636371,7.3214286 2.9671938,7.041891 2.8568581,6.7982605 2.41662,5.8927614 2.2071219,5.4618569 2.0357143,5.1007467 2.0357143,5.090294 c 0,-0.010453 0.6851243,-0.7040664 1.5224983,-1.5413638 L 5.0807107,2.0265714 5.3022602,2.130556 C 5.4241124,2.1877475 5.7005952,2.3224449 5.9166667,2.4298836 6.5315962,2.735649 7.0636231,2.9797531 7.2913098,3.0605962 7.8320029,3.2525762 8.368899,3.1379312 8.731941,2.7529736 8.9757538,2.4944426 9.0310138,2.3678768 9.5483276,0.8831445 l 0.291116,-0.83552545 h 2.1622224 2.162223 L 14.3854,0.69047619 c 0.556654,1.61548761 0.635659,1.80071141 0.877355,2.05692121 0.270885,0.2871533 0.618357,0.4244895 1.011055,0.3996133 0.280849,-0.017791 0.565206,-0.122175 1.319597,-0.4844067 0.341483,-0.1639685 0.779478,-0.3741808 0.97332,-0.4671386 l 0.352442,-0.1690142 1.522558,1.522419 c 0.837408,0.8373303 1.522559,1.530971 1.522559,1.5414238 0,0.010453 -0.171408,0.3715629 -0.380906,0.8024674 -0.440238,0.9054991 -0.550574,1.1491296 -0.647017,1.4286672 -0.185357,0.5372504 -0.07054,1.0509512 0.316514,1.4160757 0.252526,0.23822 0.455096,0.3246781 2.056647,0.8777897 l 0.642857,0.222017 v 2.162076 2.162076 l -0.833333,0.289812 c -1.481055,0.515072 -1.613262,0.572756 -1.872022,0.816784 -0.380809,0.35913 -0.494815,0.876754 -0.310663,1.410512 0.09836,0.285087 0.216175,0.544714 0.648946,1.430046 0.208437,0.426405 0.378977,0.785365 0.378977,0.797688 0,0.0251 -3.026758,3.057981 -3.051804,3.057981 -0.0088,0 -0.410527,-0.191862 -0.892787,-0.42636 -1.270593,-0.617821 -1.464086,-0.691984 -1.805409,-0.691984 -0.510584,0 -0.943294,0.269448 -1.176012,0.7323 -0.14383,0.286064 -0.213608,0.468754 -0.561222,1.469377 l -0.314313,0.904762 -2.159449,0.0061 c -1.715189,0.0048 -2.1616871,0 -2.170325,-0.02381 z m 2.902173,-1.91961 c 0.06413,-0.01409 0.07789,-0.0407 0.217053,-0.419802 0.347271,-0.94602 0.595052,-1.366975 1.065046,-1.809408 0.353496,-0.332765 0.725275,-0.554369 1.192485,-0.710794 0.360193,-0.120595 0.541214,-0.14653 1.016468,-0.145632 0.405167,7.66e-4 0.460491,0.0062 0.69015,0.06732 0.331228,0.0882 0.733973,0.243204 1.221238,0.470011 l 0.399483,0.185947 0.552898,-0.561665 c 0.304094,-0.308916 0.54941,-0.573626 0.545146,-0.588244 -0.0043,-0.01462 -0.07632,-0.172174 -0.160114,-0.350122 -0.440864,-0.936179 -0.580873,-1.477958 -0.550145,-2.128838 0.03292,-0.697354 0.298306,-1.360002 0.767607,-1.916667 0.273857,-0.324838 0.61797,-0.581336 1.102005,-0.821423 0.259977,-0.128952 0.454627,-0.207631 1.086494,-0.43917 L 22,12.802927 V 11.999712 11.196498 L 21.595238,11.048183 C 20.886453,10.788466 20.555301,10.62401 20.185564,10.348112 19.520611,9.8519262 19.081127,9.1048517 18.951299,8.25 18.841615,7.5277855 18.984277,6.8868748 19.491451,5.8233545 L 19.65517,5.4800426 19.186335,5.001926 C 18.928476,4.7389619 18.678786,4.4832976 18.631468,4.4337829 l -0.08603,-0.090027 -0.308433,0.1461457 C 17.64966,4.7682055 17.086158,4.9747524 16.73777,5.0394338 16.474915,5.0882355 15.802905,5.0810133 15.571429,5.0268993 14.584065,4.7960755 13.826509,4.2223736 13.350845,3.3452381 13.228656,3.1199193 13.162074,2.9627643 12.962479,2.4285714 L 12.802348,2 12.001739,1.9937301 c -0.628195,-0.00492 -0.802815,2.072e-4 -0.810854,0.02381 C 11.069587,2.3736669 10.832967,2.9700207 10.72549,3.1904762 10.360706,3.9387169 9.8688781,4.4440005 9.1954712,4.7623543 8.7619255,4.9673136 8.3972462,5.057716 7.9260764,5.0770314 7.3001124,5.1026926 6.7929052,4.9696567 5.8805095,4.5404967 5.6843245,4.4482181 5.5117267,4.3692131 5.4969586,4.36493 5.4821905,4.3606471 5.2175114,4.6062829 4.9087831,4.9107874 L 4.3474588,5.4644319 4.5148029,5.827454 C 4.8199962,6.4895148 4.971466,6.9080829 5.038205,7.2738095 5.0808619,7.5075676 5.0812157,8.1904343 5.0387788,8.3809524 4.8556762,9.2029745 4.4233102,9.9022402 3.821429,10.349774 3.4643945,10.615249 3.1084924,10.791102 2.4047624,11.049755 L 2.0000005,11.198523 V 12 12.801477 l 0.4149816,0.15232 c 0.7440774,0.273115 1.3143422,0.584539 1.6729319,0.913594 0.574501,0.527182 0.9550391,1.362137 0.9882334,2.168323 0.027621,0.670831 -0.1142898,1.203859 -0.5849172,2.196996 l -0.1441247,0.304138 0.5612107,0.553005 c 0.3086662,0.304152 0.5680676,0.552925 0.5764476,0.552828 0.00838,-9.5e-5 0.1223795,-0.05209 0.2533319,-0.115545 0.3452929,-0.167311 0.7995593,-0.35663 1.0595238,-0.441564 0.3859557,-0.126097 0.5161926,-0.144232 1.03906,-0.144682 0.4324343,-3.74e-4 0.5014253,0.0053 0.702381,0.05769 0.9493281,0.247534 1.6381235,0.78828 2.1096235,1.65618 0.125585,0.231168 0.269063,0.568984 0.424721,1 0.115307,0.319286 0.129763,0.346368 0.192304,0.360278 0.03719,0.0083 0.367625,0.01504 0.734291,0.01504 0.366667,0 0.697479,-0.0068 0.735138,-0.01504 z"
     id="path16" />
</svg>
