<?xml version="1.0" encoding="UTF-8" standalone="no"?>
<svg
   xmlns:dc="http://purl.org/dc/elements/1.1/"
   xmlns:cc="http://creativecommons.org/ns#"
   xmlns:rdf="http://www.w3.org/1999/02/22-rdf-syntax-ns#"
   xmlns:svg="http://www.w3.org/2000/svg"
   xmlns="http://www.w3.org/2000/svg"
   xmlns:sodipodi="http://sodipodi.sourceforge.net/DTD/sodipodi-0.dtd"
   xmlns:inkscape="http://www.inkscape.org/namespaces/inkscape"
   version="1.1"
   id="Layer_1"
   inkscape:version="1.0.2-2 (e86c870879, 2021-01-15)"
   sodipodi:docname="state.svg"
   x="0px"
   y="0px"
   viewBox="0 0 117.1 57"
   enable-background="new 0 0 123.2 65"
   xml:space="preserve"
   width="117.1"
   height="57"><metadata
   id="metadata12"><rdf:RDF><cc:Work
       rdf:about=""><dc:format>image/svg+xml</dc:format><dc:type
         rdf:resource="http://purl.org/dc/dcmitype/StillImage" /></cc:Work></rdf:RDF></metadata><defs
   id="defs10" /><sodipodi:namedview
   pagecolor="#ffffff"
   bordercolor="#666666"
   borderopacity="1"
   objecttolerance="10"
   gridtolerance="10"
   guidetolerance="10"
   inkscape:pageopacity="0"
   inkscape:pageshadow="2"
   inkscape:window-width="1681"
   inkscape:window-height="1187"
   id="namedview8"
   showgrid="false"
   inkscape:zoom="8.9935067"
   inkscape:cx="58.499998"
   inkscape:cy="32.947653"
   inkscape:window-x="0"
   inkscape:window-y="0"
   inkscape:window-maximized="0"
   inkscape:current-layer="Layer_1" />
<g
   id="rect5250_00000080910858573761638530000002096627126826348431_"
   transform="translate(-3.1,-4)">
	<path
   fill="#eef8fe"
   d="m 14.7,4.5 h 93.9 c 6.1,0 11.1,5 11.1,11.1 v 33.9 c 0,6.1 -5,11.1 -11.1,11.1 H 14.7 C 8.6,60.6 3.6,55.6 3.6,49.5 V 15.6 C 3.6,9.5 8.6,4.5 14.7,4.5 Z"
   id="path2" />
	<path
   fill="#878889"
   d="M 108.6,61 H 14.7 C 8.3,61 3.1,55.8 3.1,49.5 v -34 C 3.1,9.2 8.3,4 14.7,4 h 93.9 c 6.4,0 11.6,5.2 11.6,11.6 V 49.5 C 120.1,55.8 114.9,61 108.6,61 Z M 14.7,5 C 8.8,5 4.1,9.7 4.1,15.5 V 49.4 C 4.1,55.3 8.8,60 14.7,60 h 93.9 c 5.8,0 10.6,-4.8 10.6,-10.6 V 15.5 C 119.2,9.7 114.4,4.9 108.6,4.9 H 14.7 Z"
   id="path4" />
</g>
</svg>
